# xmcd CD database file generated by OrangeCD 6.5
#
# Track frame offsets:
#	150
#	14364
#	31262
#	52260
#	67252
#	86264
#	100063
#	119331
#
# Disc length: 1811 seconds
#
# Revision: 0
# Processed by: cddbd v1.5.2PL0 Copyright (c) Steve Scherf et al.
# Submitted via: OrangeCD 6.5
#
DISCID=66071108
DTITLE=Ronnie Milsap - The Essential Ronnie Milsap, Limited Edition 3.0, Disc 3
DYEAR=2006
DGENRE=Country
TTITLE0=Too Late To Worry, Too Blue To Cry
TTITLE1=In No Time At All
TTITLE2=Misery Loves Company
TTITLE3=Don't You Know How Much I love You
TTITLE4=Prisoner Of The Highway
TTITLE5=Snap Your Fingers
TTITLE6=Since I don't Have You
TTITLE7=Turn That Radio On
EXTD=
EXTT0=
EXTT1=
EXTT2=
EXTT3=
EXTT4=
EXTT5=
EXTT6=
EXTT7=
PLAYORDER=
